<?xml version="1.0" encoding="UTF-8" standalone="no"?>
<!DOCTYPE svg PUBLIC "-//W3C//DTD SVG 1.1//EN" "http://www.w3.org/Graphics/SVG/1.1/DTD/svg11.dtd">
<svg width="100%" height="100%" viewBox="0 0 200 200" version="1.1" xmlns="http://www.w3.org/2000/svg" xmlns:xlink="http://www.w3.org/1999/xlink" xml:space="preserve" style="fill-rule:evenodd;clip-rule:evenodd;stroke-linejoin:round;stroke-miterlimit:1.41421;">
    <g transform="matrix(1,0,0,1,-440,0)">
        <g id="expert" transform="matrix(1,0,0,1,440,0)">
            <rect x="0" y="0" width="200" height="200" style="fill:none;"/>
            <g transform="matrix(1,0,0,1,-440,0)">
                <path d="M510,110L514.932,64.108L564.797,64.108L570,110L510,110Z" style="fill:url(#_Linear1);"/>
            </g>
            <g transform="matrix(1,0,0,1,-440,0)">
                <rect x="490" y="130" width="20" height="50" style="fill:rgb(255,116,82);"/>
            </g>
            <g transform="matrix(1,0,0,1,-360,0)">
                <rect x="490" y="130" width="20" height="50" style="fill:rgb(133,225,178);"/>
            </g>
            <g transform="matrix(1,0,0,1,-440,0)">
                <rect x="510" y="110" width="20" height="70" style="fill:rgb(64,148,237);"/>
            </g>
            <g transform="matrix(1,0,0,1,-420,0)">
                <rect x="510" y="110" width="20" height="70" style="fill:rgb(133,225,178);"/>
            </g>
            <g transform="matrix(1,0,0,1,-400,0)">
                <rect x="510" y="110" width="20" height="70" style="fill:rgb(35,82,128);"/>
            </g>
            <g transform="matrix(0.623307,0.623307,-0.623307,0.623307,-199.323,-272.478)">
                <rect x="490" y="10" width="40" height="40" style="fill:rgb(255,116,82);"/>
            </g>
        </g>
    </g>
    <defs>
        <linearGradient id="_Linear1" x1="0" y1="0" x2="1" y2="0" gradientUnits="userSpaceOnUse" gradientTransform="matrix(0.135475,33.292,-33.292,0.135475,539.865,76.708)"><stop offset="0" style="stop-color:white;stop-opacity:1"/><stop offset="1" style="stop-color:rgb(134,189,244);stop-opacity:1"/></linearGradient>
    </defs>
</svg>
